<svg xmlns="http://www.w3.org/2000/svg" viewBox="0 0 351.94 87.87"><defs><style>.cls-1{fill:#fff}.cls-2,.cls-3{fill:#8bc53f}.cls-2{stroke:#8dc63f;stroke-miterlimit:10}.cls-4{fill:#80b53a}</style></defs><title>Ресурс 1</title><g id="Слой_2" data-name="Слой 2"><g id="Layer_1" data-name="Layer 1"><path class="cls-1" d="M19 76.74l-.12.06L0 44.72h4.76l16.37 28 14.76-28h4.7L18 87.15h-4.49zM58.56 48.88v12.5c6-.3 12-.54 15.83-.54 10.59 0 18.45 1.79 18.45 13.51s-7.92 13.52-18.63 13.52c-4.46 0-12.56-.3-19.94-.71V44.72H89.8l-.36 4.17zM74 65c-3.45 0-9.4.24-15.47.54v17.8c6.07.3 12 .48 15.47.48 8.33 0 14.52-1.13 14.52-9.4S82.36 65 74 65zM108.07 87.15V44.72h35.53l-.36 4.17h-30.89v15H140l-.21 4.11h-27.44v15h31.25l-.36 4.11zM158.35 87.15V44.72c7.38-.42 15.47-.71 19.88-.71 10.77 0 18.69 1.78 18.69 14.1s-7.92 14.1-18.69 14.1c-3.57 0-9.58-.18-15.59-.48v15.42zm19.76-39c-3.45 0-9.4.24-15.47.54v19c6.07.3 12 .48 15.47.48 8.33 0 14.52-1.19 14.52-10s-6.19-10.06-14.52-10.06z"/><path class="cls-2" d="M227.86 76.74l-.12.06-18.86-32.08h4.76l16.37 28 14.76-28h4.7l-22.62 42.43h-4.46z"/><path class="cls-1" d="M263.15 87.15V44.72h4.29v19.16h10.65l17.31-19.16h5.36l.06.12L281.89 66l18.81 20.85-.06.36-4.64.6L278.15 68h-10.72v19.1zM313.37 87.15V44.72c7.38-.42 15.47-.71 19.88-.71 10.77 0 18.69 1.78 18.69 14.1s-7.92 14.1-18.69 14.1c-3.57 0-9.58-.18-15.59-.48v15.42zm19.76-39c-3.45 0-9.4.24-15.48.54v19c6.07.3 12 .48 15.48.48 8.33 0 14.52-1.19 14.52-10s-6.19-10.06-14.52-10.06z"/><path class="cls-3" d="M229.44 12.75a7 7 0 1 0 7 7 7 7 0 0 0-7-7zm0 0a7 7 0 1 0 7 7 7 7 0 0 0-7-7zm0 0a7 7 0 1 0 7 7 7 7 0 0 0-7-7zm0 0a7 7 0 1 0 7 7 7 7 0 0 0-7-7zm0-12.75a19.71 19.71 0 0 0-16.59 30.37l16.59 28 .27.46L246 30.37A19.71 19.71 0 0 0 229.44 0zm0 5.75a14 14 0 1 1-14 14 14 14 0 0 1 14-14zm0 20.94a7 7 0 1 0-7-7 7 7 0 0 0 7 7zm0-13.93a7 7 0 1 0 7 7 7 7 0 0 0-7-7.01zm0 0a7 7 0 1 0 7 7 7 7 0 0 0-7-7.01zm0 0a7 7 0 1 0 7 7 7 7 0 0 0-7-7.01zm0 0a7 7 0 1 0 7 7 7 7 0 0 0-7-7.01z"/><path class="cls-4" d="M249.15 19.72A19.72 19.72 0 0 0 229.43 0v5.06a14.66 14.66 0 0 1 0 29.31v24l.27.46L246 30.37a19.62 19.62 0 0 0 3.15-10.65z"/><path class="cls-4" d="M229.44 3.33a16.39 16.39 0 1 0 16.39 16.39 16.39 16.39 0 0 0-16.39-16.39zm-14 16.39a14 14 0 1 1 14 14 14 14 0 0 1-13.97-14z"/></g></g></svg>